<svg width="36" height="36" fill="none" xmlns="http://www.w3.org/2000/svg"><path d="M29.863 11.706h-4.375V5.872H5.07A2.925 2.925 0 002.155 8.79v16.042H5.07a4.37 4.37 0 004.375 4.375 4.37 4.37 0 004.375-4.375h8.75a4.37 4.37 0 004.375 4.375 4.37 4.37 0 004.375-4.375h2.917V17.54l-4.375-5.833zm-.73 2.187l2.86 3.646h-6.505v-3.646h3.646zM9.447 26.29a1.463 1.463 0 01-1.458-1.458c0-.802.656-1.459 1.458-1.459.802 0 1.459.657 1.459 1.459s-.657 1.458-1.459 1.458zm3.238-4.375c-.802-.89-1.94-1.458-3.238-1.458s-2.435.569-3.237 1.458H5.07V8.79h17.5v13.125h-9.887zm14.262 4.375a1.463 1.463 0 01-1.458-1.458c0-.802.656-1.459 1.458-1.459.802 0 1.459.657 1.459 1.459s-.657 1.458-1.459 1.458z" fill="#3D6AF2"/></svg>