<svg width="36" height="36" fill="none" xmlns="http://www.w3.org/2000/svg"><path d="M21.855 30.572l7.847-1.7s-2.83-19.16-2.854-19.287c-.023-.125-.125-.21-.23-.21-.105 0-2.098-.147-2.098-.147s-1.384-1.384-1.552-1.531c-.04-.042-.083-.063-.126-.085l-.987 22.96zm.65-23c-.023 0-.062.02-.083.02-.023 0-.316.086-.777.23-.464-1.34-1.282-2.578-2.728-2.578h-.126c-.421-.527-.923-.757-1.365-.757-3.377 0-4.996 4.218-5.498 6.357-1.3.401-2.243.694-2.352.736-.735.23-.754.251-.837.945-.083.502-1.994 15.297-1.994 15.297l14.754 2.77 1.007-23.02zm-3.842 1.026v.149c-.815.252-1.718.525-2.6.798.504-1.93 1.446-2.876 2.264-3.234.213.547.336 1.28.336 2.287zM17.32 5.39c.146 0 .293.04.442.149-1.068.501-2.244 1.782-2.729 4.342-.683.219-1.369.429-2.057.63.567-1.952 1.932-5.121 4.344-5.121zm.586 11.392s-.88-.46-1.928-.46c-1.574 0-1.637.987-1.637 1.239 0 1.343 3.526 1.867 3.526 5.036 0 2.496-1.575 4.092-3.714 4.092-2.561 0-3.862-1.596-3.862-1.596l.693-2.266s1.344 1.155 2.475 1.155a1.013 1.013 0 001.051-1.006c0-1.763-2.896-1.85-2.896-4.743 0-2.434 1.742-4.805 5.29-4.805 1.364 0 2.034.397 2.034.397l-1.032 2.957zm1.345-10.618c.755.088 1.24.945 1.552 1.912-.377.127-.798.252-1.259.398v-.273c0-.818-.105-1.49-.293-2.037z" fill="#215EF8"/></svg>