<svg width="36" height="36" fill="none" xmlns="http://www.w3.org/2000/svg"><g clip-path="url(#clip0)" fill="#215EF8"><path d="M35.612 30.664l-6.563 4.375v-2.187H18.66l4.375-4.375h6.015v-2.188l6.563 4.375zm-35-26.25L7.174.04v2.188h10.391L13.19 6.602H7.174v2.187L.612 4.414zM21.918.04L.612 21.344 14.306 35.04l21.306-21.306L21.918.039zM3.653 21.344L21.918 3.08l10.653 10.653-18.265 18.266L3.653 21.345z"/><path d="M9.734 21.345l-1.531 1.532 4.571 4.572 1.532-1.532 1.618 1.51 5.994-6.082a5.383 5.383 0 01-7.612-7.612l-6.082 5.994 1.51 1.618zM28 12.223l-4.572-4.571-1.532 1.53-1.597-1.53-5.993 6.08a5.384 5.384 0 017.612 7.613L28 15.352l-1.532-1.532L28 12.223z"/></g><defs><clipPath id="clip0"><path fill="#fff" d="M.612.039h35v35h-35z"/></clipPath></defs></svg>