<svg width="37" height="37" fill="none" xmlns="http://www.w3.org/2000/svg"><path d="M31.783 13.005L19.497 6.94a1.727 1.727 0 00-1.529 0L5.683 13.005a2.813 2.813 0 00-1.575 2.515V28.5c0 1.554 1.275 2.813 2.849 2.813H30.51c1.574 0 2.85-1.259 2.85-2.812V15.52a2.812 2.812 0 00-1.578-2.516v0z" stroke="#3D6AF2" stroke-width="2" stroke-linecap="round" stroke-linejoin="round"/><path d="M28.67 26.813l-9.089-7.069a1.688 1.688 0 00-2.072 0l-9.09 7.07m14.063-5.134l9.563-7.242m-27 0l9.773 7.383" stroke="#3D6AF2" stroke-width="2" stroke-linecap="round" stroke-linejoin="round"/></svg>