<svg width="25" height="25" fill="none" xmlns="http://www.w3.org/2000/svg"><path d="M20.163 11.656h2c0-5.13-3.873-9-9.01-9v2c4.062 0 7.01 2.944 7.01 7z" fill="#215EF8"/><path d="M13.163 8.657c2.103 0 3 .897 3 3h2c0-3.225-1.775-5-5-5v2zm3.422 5.443a1 1 0 00-1.391.043l-2.393 2.46c-.576-.11-1.734-.47-2.926-1.66-1.192-1.192-1.553-2.353-1.66-2.925l2.459-2.394a1 1 0 00.043-1.391L7.022 4.17a1 1 0 00-1.391-.087l-2.17 1.86a1 1 0 00-.29.65c-.015.25-.301 6.172 4.29 10.766 4.007 4.005 9.025 4.298 10.407 4.298.202 0 .326-.006.359-.008a.992.992 0 00.648-.291l1.86-2.171a1 1 0 00-.086-1.391L16.585 14.1z" fill="#215EF8"/></svg>