<svg width="17" height="17" fill="none" xmlns="http://www.w3.org/2000/svg"><path d="M13.23 12.309a23.46 23.46 0 01-.911-.923c-.248-.252-.397-.435-.397-.435l-1.867-.892a4.641 4.641 0 001.16-3.068 4.672 4.672 0 00-4.667-4.667 4.672 4.672 0 00-4.666 4.667 4.672 4.672 0 004.666 4.667c1.176 0 2.247-.44 3.069-1.16l.891 1.867s.184.15.436.397c.258.242.597.57.922.912l.906.928.402.43 1.414-1.414-.43-.402-.928-.907zm-6.682-1.985a3.337 3.337 0 01-3.333-3.333 3.337 3.337 0 013.333-3.333A3.337 3.337 0 019.882 6.99a3.337 3.337 0 01-3.334 3.333z" fill="#333"/></svg>