<svg width="26" height="26" fill="none" xmlns="http://www.w3.org/2000/svg"><path d="M21.46 19.27a9.131 9.131 0 00-1.968-2.918 9.168 9.168 0 00-2.918-1.968l-.03-.012A6.054 6.054 0 0013 3.41a6.054 6.054 0 00-3.544 10.964l-.03.012a9.091 9.091 0 00-2.917 1.968 9.17 9.17 0 00-1.967 2.918 9.075 9.075 0 00-.72 3.371.195.195 0 00.195.2H5.48a.195.195 0 00.196-.19 7.279 7.279 0 012.143-4.988A7.276 7.276 0 0113 15.52c1.958 0 3.796.762 5.18 2.146a7.279 7.279 0 012.144 4.988c.003.107.088.19.195.19h1.465a.195.195 0 00.196-.2 9.098 9.098 0 00-.72-3.374zM13 13.663a4.172 4.172 0 01-2.969-1.23 4.172 4.172 0 01-1.23-2.97c0-1.12.437-2.175 1.23-2.968A4.172 4.172 0 0113 5.266c1.12 0 2.175.436 2.969 1.23a4.172 4.172 0 011.23 2.968 4.177 4.177 0 01-1.23 2.97A4.172 4.172 0 0113 13.663z" fill="#333"/></svg>