<svg width="26" height="26" viewBox="0 0 26 26" fill="none" xmlns="http://www.w3.org/2000/svg">
<path d="M22.0379 5.01041H2.24628V7.09374H4.64211L8.06086 16.4948C8.2813 17.0968 8.68097 17.6167 9.20601 17.9846C9.73106 18.3524 10.3562 18.5505 10.9973 18.5521H19.9546V16.4687H10.9973C10.5609 16.4687 10.1671 16.1927 10.0182 15.7833L9.50982 14.3854H19.1692C20.0963 14.3854 20.9192 13.7625 21.1723 12.8739L23.04 6.33853C23.0837 6.18348 23.091 6.02042 23.0612 5.86211C23.0314 5.70379 22.9654 5.55451 22.8684 5.42591C22.7714 5.29732 22.6459 5.1929 22.5019 5.12082C22.3578 5.04874 22.199 5.01095 22.0379 5.01041ZM19.1692 12.3021H8.75253L6.85878 7.09374H20.6577L19.1692 12.3021Z" fill="#333333"/>
<path d="M11.1005 22.7188C11.9634 22.7188 12.663 22.0192 12.663 21.1562C12.663 20.2933 11.9634 19.5938 11.1005 19.5938C10.2375 19.5938 9.53796 20.2933 9.53796 21.1562C9.53796 22.0192 10.2375 22.7188 11.1005 22.7188Z" fill="#333333"/>
<path d="M17.3505 22.7188C18.2134 22.7188 18.913 22.0192 18.913 21.1562C18.913 20.2933 18.2134 19.5938 17.3505 19.5938C16.4875 19.5938 15.788 20.2933 15.788 21.1562C15.788 22.0192 16.4875 22.7188 17.3505 22.7188Z" fill="#333333"/>
</svg>
