<svg width="36" height="36" viewBox="0 0 36 36" fill="none" xmlns="http://www.w3.org/2000/svg">
<path d="M21.8551 30.5723L29.7024 28.8719C29.7024 28.8719 26.8718 9.71227 26.8485 9.58539C26.8251 9.45998 26.723 9.37539 26.618 9.37539C26.513 9.37539 24.5195 9.2281 24.5195 9.2281C24.5195 9.2281 23.1355 7.84414 22.9678 7.69685C22.9285 7.65456 22.8847 7.63414 22.8424 7.61227L21.8551 30.5723ZM22.5055 7.57144C22.4822 7.57144 22.4428 7.59185 22.4224 7.59185C22.3991 7.59185 22.106 7.67789 21.6451 7.82227C21.1814 6.48206 20.3633 5.24394 18.9166 5.24394H18.7912C18.3697 4.71748 17.868 4.48706 17.4262 4.48706C14.0487 4.48706 12.4299 8.70456 11.9283 10.8439C10.6274 11.245 9.68534 11.5381 9.57596 11.5804C8.84096 11.8108 8.822 11.8312 8.73888 12.5254C8.65575 13.0271 6.74534 27.8219 6.74534 27.8219L21.4993 30.5912L22.5055 7.57144V7.57144ZM18.6628 8.5981V8.74685C17.8476 8.99914 16.9449 9.27185 16.0626 9.54456C16.5672 7.61519 17.5093 6.66873 18.3274 6.31144C18.5403 6.85831 18.6628 7.59185 18.6628 8.5981V8.5981ZM17.3212 5.38977C17.467 5.38977 17.6143 5.4306 17.763 5.53852C16.6955 6.04019 15.5187 7.3206 15.0345 9.88144C14.3512 10.1 13.6653 10.31 12.9768 10.5114C13.5441 8.55873 14.9091 5.38977 17.3212 5.38977V5.38977ZM17.9074 16.7823C17.9074 16.7823 17.0266 16.3229 15.9795 16.3229C14.4045 16.3229 14.3418 17.3087 14.3418 17.561C14.3418 18.9041 17.868 19.4277 17.868 22.5966C17.868 25.0933 16.293 26.6887 14.1537 26.6887C11.5928 26.6887 10.292 25.0933 10.292 25.0933L10.9847 22.8271C10.9847 22.8271 12.3293 23.9821 13.4595 23.9821C13.5952 23.9875 13.7307 23.9656 13.8578 23.9176C13.9849 23.8695 14.1009 23.7963 14.1991 23.7024C14.2972 23.6085 14.3755 23.4957 14.429 23.3709C14.4826 23.246 14.5105 23.1117 14.511 22.9758C14.511 21.2127 11.6147 21.1266 11.6147 18.2333C11.6147 15.7994 13.3574 13.4281 16.9041 13.4281C18.2691 13.4281 18.9385 13.8248 18.9385 13.8248L17.9074 16.7823V16.7823ZM19.252 6.16414C20.0074 6.25164 20.4916 7.10914 20.8037 8.07602C20.4274 8.20289 20.006 8.32831 19.5451 8.47414V8.20144C19.5451 7.38331 19.4401 6.71102 19.252 6.16414V6.16414Z" fill="#215EF8"/>
</svg>
