<svg width="36" height="36" viewBox="0 0 36 36" fill="none" xmlns="http://www.w3.org/2000/svg">
<path d="M29.8629 11.7058H25.4879V5.87244H5.07127C3.4671 5.87244 2.1546 7.18494 2.1546 8.7891V24.8308H5.07127C5.07127 27.2516 7.02543 29.2058 9.44627 29.2058C11.8671 29.2058 13.8213 27.2516 13.8213 24.8308H22.5713C22.5713 27.2516 24.5254 29.2058 26.9463 29.2058C29.3671 29.2058 31.3213 27.2516 31.3213 24.8308H34.2379V17.5391L29.8629 11.7058ZM29.1338 13.8933L31.9921 17.5391H25.4879V13.8933H29.1338ZM9.44627 26.2891C8.64419 26.2891 7.98794 25.6329 7.98794 24.8308C7.98794 24.0287 8.64419 23.3724 9.44627 23.3724C10.2484 23.3724 10.9046 24.0287 10.9046 24.8308C10.9046 25.6329 10.2484 26.2891 9.44627 26.2891ZM12.6838 21.9141C11.8817 21.0245 10.7442 20.4558 9.44627 20.4558C8.14835 20.4558 7.01085 21.0245 6.20877 21.9141H5.07127V8.7891H22.5713V21.9141H12.6838ZM26.9463 26.2891C26.1442 26.2891 25.4879 25.6329 25.4879 24.8308C25.4879 24.0287 26.1442 23.3724 26.9463 23.3724C27.7484 23.3724 28.4046 24.0287 28.4046 24.8308C28.4046 25.6329 27.7484 26.2891 26.9463 26.2891Z" fill="#215EF8"/>
</svg>
