<svg width="36" height="36" viewBox="0 0 36 36" fill="none" xmlns="http://www.w3.org/2000/svg">
<g clip-path="url(#clip0)">
<path d="M35.6119 30.6642L29.0494 35.0392V32.8517H18.6588L23.0338 28.4767H29.0494V26.2892L35.6119 30.6642Z" fill="#3D6AF2"/>
<path d="M0.611938 4.41418L7.17444 0.0391846V2.22668H17.5651L13.1901 6.60168H7.17444V8.78918L0.611938 4.41418Z" fill="#3D6AF2"/>
<path d="M21.9182 0.0391846L0.611938 21.3454L14.3057 35.0392L35.6119 13.7329L21.9182 0.0391846ZM3.65256 21.3454L21.9182 3.07981L32.5713 13.7329L14.3057 31.9986L3.65256 21.3454Z" fill="#3D6AF2"/>
<path d="M9.73376 21.3454L8.20251 22.8767L12.7744 27.4485L14.3056 25.9173L15.9244 27.4267L21.9181 21.3454C20.9036 22.3304 19.5423 22.8767 18.1284 22.8662C16.7144 22.8558 15.3613 22.2895 14.3614 21.2896C13.3616 20.2898 12.7953 18.9367 12.7848 17.5227C12.7744 16.1087 13.3207 14.7474 14.3056 13.7329L8.22439 19.7267L9.73376 21.3454Z" fill="#3D6AF2"/>
<path d="M27.9995 12.2235L23.4276 7.65161L21.8963 9.18286L20.2995 7.65161L14.3057 13.7329C15.3202 12.7479 16.6815 12.2016 18.0955 12.212C19.5095 12.2225 20.8626 12.7888 21.8624 13.7887C22.8623 14.7885 23.4286 16.1416 23.439 17.5556C23.4495 18.9695 22.9032 20.3309 21.9182 21.3454L27.9995 15.3516L26.4682 13.8204L27.9995 12.2235Z" fill="#3D6AF2"/>
</g>
<defs>
<clipPath id="clip0">
<rect width="35" height="35" fill="white" transform="translate(0.611938 0.0391846)"/>
</clipPath>
</defs>
</svg>
