<svg width="37" height="37" viewBox="0 0 37 37" fill="none" xmlns="http://www.w3.org/2000/svg">
<path d="M28.9202 14.4385C28.9202 13.0596 28.6486 11.6942 28.1209 10.4203C27.5932 9.14638 26.8198 7.98887 25.8448 7.01386C24.8698 6.03884 23.7123 5.26542 22.4383 4.73774C21.1644 4.21007 19.799 3.93848 18.4202 3.93848C17.0413 3.93848 15.6759 4.21007 14.402 4.73774C13.1281 5.26542 11.9706 6.03884 10.9955 7.01386C10.0205 7.98887 9.24711 9.14638 8.71943 10.4203C8.19176 11.6942 7.92017 13.0596 7.92017 14.4385C7.92017 16.519 8.53517 18.454 9.57767 20.086H9.56567C13.1057 25.6285 18.4202 33.9385 18.4202 33.9385L27.2747 20.086H27.2642C28.3448 18.4005 28.9195 16.4406 28.9202 14.4385ZM18.4202 18.9385C17.2267 18.9385 16.0821 18.4644 15.2382 17.6205C14.3943 16.7765 13.9202 15.632 13.9202 14.4385C13.9202 13.245 14.3943 12.1004 15.2382 11.2565C16.0821 10.4126 17.2267 9.93848 18.4202 9.93848C19.6136 9.93848 20.7582 10.4126 21.6021 11.2565C22.4461 12.1004 22.9202 13.245 22.9202 14.4385C22.9202 15.632 22.4461 16.7765 21.6021 17.6205C20.7582 18.4644 19.6136 18.9385 18.4202 18.9385Z" fill="#215EF8"/>
</svg>
