<svg width="37" height="37" viewBox="0 0 37 37" fill="none" xmlns="http://www.w3.org/2000/svg">
<path d="M31.7826 13.0047L19.4969 6.94096C19.2592 6.82369 18.9977 6.7627 18.7326 6.7627C18.4676 6.7627 18.2061 6.82369 17.9683 6.94096L5.68264 13.0047C5.21164 13.2355 4.81456 13.5934 4.53625 14.0379C4.25793 14.4825 4.10947 14.996 4.10764 15.5205V28.5009C4.10764 30.0541 5.3831 31.3134 6.9567 31.3134H30.5114C32.085 31.3134 33.3605 30.0541 33.3605 28.5009V15.5205C33.3584 14.9957 33.2095 14.482 32.9306 14.0374C32.6518 13.5928 32.2542 13.2351 31.7826 13.0047V13.0047Z" stroke="#3D6AF2" stroke-width="2" stroke-linecap="round" stroke-linejoin="round"/>
<path d="M28.6699 26.8134L19.5813 19.7442C19.2851 19.5138 18.9205 19.3887 18.5452 19.3887C18.17 19.3887 17.8054 19.5138 17.5092 19.7442L8.41989 26.8134" stroke="#3D6AF2" stroke-width="2" stroke-linecap="round" stroke-linejoin="round"/>
<path d="M22.4824 21.6807L32.0449 14.4385" stroke="#3D6AF2" stroke-width="2" stroke-linecap="round" stroke-linejoin="round"/>
<path d="M5.04489 14.4385L14.8183 21.8213" stroke="#3D6AF2" stroke-width="2" stroke-linecap="round" stroke-linejoin="round"/>
</svg>
