<svg width="25" height="25" viewBox="0 0 25 25" fill="none" xmlns="http://www.w3.org/2000/svg">
<path d="M20.163 11.6559H22.163C22.163 6.52586 18.29 2.65686 13.153 2.65686V4.65686C17.215 4.65686 20.163 7.59986 20.163 11.6559Z" fill="#3D6AF2"/>
<path d="M13.1629 8.65686C15.2659 8.65686 16.1629 9.55386 16.1629 11.6569H18.1629C18.1629 8.43186 16.3879 6.65686 13.1629 6.65686V8.65686ZM16.5849 14.0999C16.3928 13.9252 16.1403 13.8321 15.8807 13.8401C15.6212 13.8481 15.3749 13.9567 15.1939 14.1429L12.8009 16.6039C12.2249 16.4939 11.0669 16.1329 9.87494 14.9439C8.68294 13.7509 8.32194 12.5899 8.21494 12.0179L10.6739 9.62386C10.8604 9.44298 10.9691 9.19668 10.9771 8.93706C10.9851 8.67745 10.8918 8.4249 10.7169 8.23286L7.02194 4.16986C6.84698 3.97721 6.60382 3.86036 6.34409 3.84411C6.08437 3.82787 5.82854 3.91351 5.63094 4.08286L3.46094 5.94386C3.28805 6.11737 3.18486 6.34831 3.17094 6.59285C3.15594 6.84285 2.86994 12.7649 7.46194 17.3589C11.4679 21.3639 16.4859 21.6569 17.8679 21.6569C18.0699 21.6569 18.1939 21.6509 18.2269 21.6489C18.4715 21.6352 18.7023 21.5315 18.8749 21.3579L20.7349 19.1869C20.9044 18.9894 20.9902 18.7336 20.9742 18.4739C20.9581 18.2142 20.8414 17.9709 20.6489 17.7959L16.5849 14.0999V14.0999Z" fill="#3D6AF2"/>
</svg>
