<svg width="17" height="17" viewBox="0 0 17 17" fill="none" xmlns="http://www.w3.org/2000/svg">
<path d="M13.2303 12.3089C12.9181 12.0098 12.6142 11.7021 12.319 11.3862C12.071 11.1342 11.9217 10.9509 11.9217 10.9509L10.055 10.0595C10.8023 9.21195 11.2148 8.12085 11.215 6.99086C11.215 4.41819 9.12165 2.32419 6.54832 2.32419C3.97499 2.32419 1.88165 4.41819 1.88165 6.99086C1.88165 9.56352 3.97499 11.6575 6.54832 11.6575C7.72365 11.6575 8.79499 11.2175 9.61699 10.4982L10.5083 12.3649C10.5083 12.3649 10.6917 12.5142 10.9437 12.7622C11.2017 13.0042 11.541 13.3315 11.8663 13.6735L12.7717 14.6015L13.1743 15.0322L14.5883 13.6182L14.1577 13.2155C13.905 12.9675 13.5677 12.6382 13.2303 12.3089ZM6.54832 10.3242C4.71032 10.3242 3.21499 8.82886 3.21499 6.99086C3.21499 5.15285 4.71032 3.65752 6.54832 3.65752C8.38632 3.65752 9.88165 5.15285 9.88165 6.99086C9.88165 8.82886 8.38632 10.3242 6.54832 10.3242Z" fill="#333333"/>
</svg>
