<svg width="26" height="26" viewBox="0 0 26 26" fill="none" xmlns="http://www.w3.org/2000/svg">
<path d="M21.4595 19.2691C20.9989 18.1782 20.3306 17.1874 19.4917 16.3517C18.6554 15.5135 17.6646 14.8453 16.5742 14.3839C16.5645 14.379 16.5547 14.3766 16.5449 14.3717C18.0659 13.273 19.0547 11.4835 19.0547 9.46445C19.0547 6.11972 16.3447 3.40976 13 3.40976C9.65527 3.40976 6.94531 6.11972 6.94531 9.46445C6.94531 11.4835 7.93408 13.273 9.45508 14.3741C9.44531 14.379 9.43555 14.3814 9.42578 14.3863C8.33203 14.8477 7.35059 15.5094 6.5083 16.3541C5.67019 17.1904 5.00196 18.1812 4.54053 19.2716C4.08721 20.3391 3.84273 21.4836 3.82031 22.6432C3.81966 22.6692 3.82423 22.6951 3.83375 22.7194C3.84328 22.7437 3.85756 22.7658 3.87576 22.7844C3.89396 22.8031 3.91572 22.8179 3.93974 22.828C3.96376 22.8382 3.98956 22.8434 4.01563 22.8434H5.48047C5.58789 22.8434 5.67334 22.7579 5.67578 22.6529C5.72461 20.7682 6.48145 19.003 7.81934 17.6651C9.20361 16.2809 11.042 15.5191 13 15.5191C14.958 15.5191 16.7964 16.2809 18.1807 17.6651C19.5186 19.003 20.2754 20.7682 20.3242 22.6529C20.3267 22.7603 20.4121 22.8434 20.5195 22.8434H21.9844C22.0104 22.8434 22.0362 22.8382 22.0603 22.828C22.0843 22.8179 22.106 22.8031 22.1242 22.7844C22.1424 22.7658 22.1567 22.7437 22.1663 22.7194C22.1758 22.6951 22.1803 22.6692 22.1797 22.6432C22.1553 21.4762 21.9136 20.3409 21.4595 19.2691ZM13 13.6637C11.8794 13.6637 10.8247 13.2267 10.0313 12.4332C9.23779 11.6397 8.80078 10.5851 8.80078 9.46445C8.80078 8.34384 9.23779 7.28915 10.0313 6.4957C10.8247 5.70224 11.8794 5.26523 13 5.26523C14.1206 5.26523 15.1753 5.70224 15.9688 6.4957C16.7622 7.28915 17.1992 8.34384 17.1992 9.46445C17.1992 10.5851 16.7622 11.6397 15.9688 12.4332C15.1753 13.2267 14.1206 13.6637 13 13.6637Z" fill="#333333"/>
</svg>
